<?xml version="1.0" encoding="UTF-8"?>
<svg id="Capa_2" data-name="Capa 2" xmlns="http://www.w3.org/2000/svg" viewBox="0 0 137.31 135.18">
  <defs>
    <style>
      .cls-1 {
        fill: #243dd6;
      }
    </style>
  </defs>
  <g id="Capa_1-2" data-name="Capa 1">
    <path class="cls-1" d="M69.46,69.06c-3.04,3.04-6.63,4.56-10.79,4.56s-7.75-1.52-10.79-4.56c-3.04-3.04-4.56-6.63-4.56-10.79s1.52-7.73,4.56-10.71c3.04-2.98,6.64-4.48,10.79-4.48s7.75,1.49,10.79,4.48c3.04,2.98,4.56,6.55,4.56,10.71s-1.52,7.75-4.56,10.79Z"/>
    <path class="cls-1" d="M137.31,115.65l-27.69-27.69c5.14-8.7,7.72-18.57,7.72-29.61,0-16.41-5.68-30.24-17.03-41.48C88.97,5.62,75.08,0,58.67,0S28.38,5.62,17.03,16.87C5.68,28.11,0,41.94,0,58.35s5.68,30.24,17.03,41.49c11.35,11.25,25.23,16.87,41.65,16.87,11.91,0,22.48-2.98,31.73-8.9l27.38,27.38,19.53-19.53ZM37.09,80.17c-5.76-5.7-8.63-12.97-8.63-21.82s2.88-16.12,8.63-21.82c5.76-5.7,12.95-8.55,21.58-8.55s15.83,2.85,21.58,8.55c5.75,5.7,8.63,12.98,8.63,21.82s-2.88,16.12-8.63,21.82c-5.76,5.7-12.95,8.55-21.58,8.55s-15.83-2.85-21.58-8.55Z"/>
  </g>
</svg>